<svg version="1" xmlns="http://www.w3.org/2000/svg" width="666.667" height="666.667" viewBox="0 0 500.000000 500.000000"><path d="M324 52c-29.4 7-105.5 25-169 40S39.3 119.4 39.1 119.6c-.5.4 80 340.7 80.8 341.5.3.4 25.1-5.1 55.1-12.3 30-7.1 106.7-25.3 170.5-40.4 63.8-15.1 116-27.6 116.2-27.7.1-.2-73.4-311.7-80.2-339.5-.3-1.3-1.3-2.2-2.3-2.1-.9 0-25.8 5.8-55.2 12.9zm32.5 138.5c40.6 5.9 42.7 6.5 48.5 13.1 6.8 7.8 7.3 12.7 3.6 38-2.6 17.5-3.5 20-9.3 25.6-7.5 7.3-12.4 8-33.8 4.8-20.1-3-17.9-3.6-34.4 9-8 6-14.6 10.8-14.8 10.6-.2-.1.5-6 1.5-13s1.6-12.8 1.3-13c-.3-.2-3.3-.7-6.6-1.1-3.3-.4-7.6-1.3-9.5-2.1-7.1-3-13.3-11.1-14.6-19.1-.9-5.6 4.2-39.8 6.8-45.1 3.4-7.2 12.5-12.9 21-13.1 1.4-.1 19.6 2.4 40.3 5.4zm-94.7 105.6c.7 2.9 1.1 5.3 1 5.4-.7.5-13.3 3.3-13.6 3-.2-.1-.9-2.6-1.7-5.4l-1.3-5.1 4.1-1c2.3-.6 4.7-1.3 5.2-1.5 3.9-1.4 5.2-.5 6.3 4.6zm37.3 23.5c-1.1 11.5-2.5 22.6-3.1 24.6-1.8 6.1-8.2 10.4-14.6 9.6-2.8-.3-2.9-.6-3.2-6-.3-5.2-.1-5.7 2-6 1.4-.2 2.6-1.3 3.2-2.9.8-2.4-.1-4.4-7.7-16.7-4.8-7.7-8.9-14.6-9.2-15.4-.4-1.1 1-1.7 5.7-2.7 3.5-.7 6.7-1.2 7.3-1.3.5 0 2.2 3.1 3.8 6.9 2.9 6.7 5.5 10.9 4.4 6.8-.4-1.1-.7-5.1-.8-8.9l-.2-7 6.9-1.6c3.8-.9 7-1.3 7.2-1 .1.4-.7 10.1-1.7 21.6zm-30.3 5.5c5.6 24.1 5 28.8-4.1 33-7.1 3.2-8.2 2.7-10-4-1.4-5.9-1.4-6 .7-6.3 1.2-.2 2.2-1.1 2.4-2.4.2-1.1-1.5-9.7-3.7-18.9-2.2-9.3-3.9-17-3.8-17.2.6-.5 12.2-3.1 13.2-2.9.5.1 2.9 8.5 5.3 18.7zm-26.8-9.8c12.2 6.4 11.7 23.3-.9 29.9-8.7 4.6-17.5 3.4-23.4-3.1-6.3-6.9-6-16.5.6-22.9 6.7-6.5 16-8 23.7-3.9zm-37.2 8.2c1.6 1.3 3.4 3.7 4.1 5.2 1.1 2.8 6.2 22.6 5.8 22.9-1.3.8-13.4 3.1-13.8 2.6-.4-.4-1.4-4.1-2.4-8.2-2.1-8.9-3.1-11-5.1-11-2.5 0-2.7 2.6-.7 11.2 1 4.6 1.8 8.7 1.8 9.2 0 .6-3 1.7-6.7 2.7l-6.8 1.7-1-3.7c-.5-2-1.4-5.9-2-8.7-.6-2.9-1.7-6-2.5-7-1.3-1.8-1.5-1.8-3.1-.3-1.5 1.6-1.5 2.3.5 11 1.5 6.5 1.8 9.5 1 9.9-1.6 1.1-12 3.2-12.5 2.7-.6-.6-7.4-28.4-7.4-30.2 0-.7 2.7-1.9 6.2-2.8 5.6-1.4 6.4-1.4 8-.1 1.5 1.4 1.7 1.4 2.7-.5 2.3-4.3 9.9-5.8 14.2-2.8 2 1.5 2.3 1.3 5.9-2.4 4.6-4.8 9.2-5.3 13.8-1.4zm-56.9 4.6c.6 2.8.9 5.4.7 5.8-.3.4-4.1 1.6-8.6 2.6-8.2 1.9-8.6 2.1-7.1 4.3.6 1.1 2.2 1 8.5-.6l7.6-2 .6 2.7c.3 1.4 1 4.1 1.4 5.8.9 3.6 1.2 3.4-10.5 6-2.5.5-4.1 1.5-4.3 2.6-.4 2.2 1.2 2.1 11-.2l7.8-1.8 1.1 4.1c.5 2.2 1.2 4.8 1.5 5.8.4 1.3-2.2 2.3-16.3 5.6-9.2 2.3-16.9 3.9-17.2 3.7-.5-.6-10.2-41.7-9.9-42 .5-.5 29.2-7.4 31-7.4 1.2-.1 1.9 1.3 2.7 5z"/><path d="M306.6 218.2c-1.5 1.3-2.9 3.7-3.2 5.5-.5 2.7-.1 3.7 2.4 6.3 3.9 3.8 8.3 4 11.7.5 7.6-7.5-2.9-19.3-10.9-12.3zm9.2 1.4c3.1 2.2 2.9 5.4-.4 5.4-1.4 0-2.3-.4-1.9-1 .3-.5 1.2-.7 2-.3.9.3 1.5-.1 1.5-1 0-2.1-1.9-3.2-3.3-1.8-.8.8-1.5.7-2.7-.4-1.5-1.4-1.9-1.4-3 0-.7.9-1 1.9-.6 2.2.4.4 1 .2 1.4-.4.5-.7 1.1-.7 2 .3 1.1 1.2.8 1.4-1.7 1.4-1.6 0-3.2.6-3.4 1.2-.4.9-.6.7-.6-.3-.1-2.6 3.8-6.9 6.3-6.9 1.2 0 3.2.7 4.4 1.6zM328.7 224.7c-1.5 1.4-.6 2.3 1.8 1.7 1.5-.4 2.5-.2 2.5.4 0 .6-1.2 1.2-2.7 1.4-2.1.2-2.9.9-3.1 2.7-.5 3.1.8 3.8 7.1 3.7 5.1-.1 5.2-.1 5.7-3.5.8-5.4 3-5.1 3 .3 0 5.7 1.6 6 2.5.6.4-2.7 1.2-4 2.2-4 1.3 0 1.5.8 1 4.5-.5 3.5-.3 4.5.7 4.5 1.8 0 2.6-7.6 1-9.8-.7-.9-1.9-1.3-3.2-.9-1.2.3-2.4.1-2.7-.3-.3-.5-1.9-.8-3.5-.8-2.3.1-3 .6-3 2.2 0 3.4-1.2 6.6-2.1 6-.5-.2-.6-1.8-.2-3.4.3-1.8 0-3.6-.7-4.5-1.3-1.5-5.1-2-6.3-.8zm4.3 6.2c0 1.1-2.6 2.2-3.4 1.4-1.2-1.2-.5-2.3 1.4-2.3 1.1 0 2 .4 2 .9zM374 227.5c0 .8.5 1.5 1 1.5.6 0 1-.7 1-1.5s-.4-1.5-1-1.5c-.5 0-1 .7-1 1.5zM355.3 227.7c-2.1.8-1.5 2.3.8 2 1.2-.1 2.4.4 2.7 1.2.3.8 0 1.1-.7.7-1.6-1-4.8.2-5.5 2.1-.9 2.1 1.3 4.5 3.8 4.1 1.2-.1 2.6 0 3.1.4 2.1 1.2 10.3 1.9 11 .8.3-.5-.2-1-1.4-1-3.2 0-3.2-1.5-.1-4.5 1.6-1.5 2.7-3.2 2.4-3.7-.7-1.1-7.4-1-7.4.2 0 .5 1 1 2.2 1 2.1 0 2.1.1-.7 3-3.7 3.9-4.9 3.8-4.1-.4.9-4.8-2-7.6-6.1-5.9zm3.7 6.3c0 1.2-2.8 2.5-3.6 1.7-.9-.9.6-2.7 2.2-2.7.8 0 1.4.5 1.4 1zM372.5 234.6c-.6 4.4-.2 6.4 1.2 5.1.3-.4.9-2.7 1.3-5.2.5-3.3.3-4.5-.5-4.5-.7 0-1.6 2-2 4.6zM376.6 235.1c-1 7.2.9 8.6 2.3 1.7.4-2.1 1.4-3.4 2.5-3.6 1.7-.4 1.8.1 1.2 4.3-.6 3.7-.5 4.6.6 4.3 1.8-.6 2.4-9.7.6-10.2-6.3-2-6.5-1.9-7.2 3.5zM387.6 234.2c-3 4.2-1.5 8.8 2.8 8.8 1.5 0 1.7.3.8 1.2-.8.8-1.5.8-2.7-.2-.8-.7-1.9-1-2.3-.6-.8.9 2.6 3.6 4.4 3.6 2.4 0 4.1-2.9 4.7-8.1.4-2.9.5-5.4.4-5.5-.1-.1-1.6-.5-3.4-.8-2.5-.6-3.4-.3-4.7 1.6zm4.9.9c1.1 1.6-.4 5.9-2 5.9-1 0-1.5-1-1.5-2.8 0-3.9 2-5.6 3.5-3.1zM229.8 326.1c-2.1 1.2-2.4 5.9-.6 7.7 1.8 1.8 5.6 1.4 6.8-.7 1.2-2.4-.1-6.6-2.5-7.5-2-.7-1.6-.8-3.7.5z"/></svg>